<svg xmlns="http://www.w3.org/2000/svg" viewBox="0 0 285.89 107.92"><defs><style>.cls-1{fill:#222220;}</style></defs><title>black logo</title><g id="Слой_2" data-name="Слой 2"><g id="Layer_3" data-name="Layer 3"><polygon class="cls-1" points="285.37 107.92 0 107.92 0 58.23 3.05 58.23 3.05 104.88 285.37 104.88 285.37 107.92"/><polygon class="cls-1" points="285.89 45.5 282.84 45.5 282.84 3.05 0 3.05 0 0 285.89 0 285.89 45.5"/><path class="cls-1" d="M27.94,47.52l-3.63-8.61H6.81L3.17,47.52H0L15.26,11.84H16L31.15,47.52ZM15.42,18.47,7.93,36.29H23.18L15.64,18.47Z"/><path class="cls-1" d="M63.63,47.52H59.35L46,32.65v-.54c4.12,0,7.28-1,9.42-2.67a7.74,7.74,0,0,0,3.26-6.21c0-5.29-3.69-8.4-9.2-8.4H40.94V47.52H37.79V12.16H49.88a12.6,12.6,0,0,1,8.29,2.94,9.73,9.73,0,0,1,3.64,8,10.16,10.16,0,0,1-3,7.16A12.57,12.57,0,0,1,51,34Z"/><path class="cls-1" d="M97.49,45.44c-2.62,1.65-7,2.56-10.43,2.56C81.44,48,77,46.35,73.84,43A18.25,18.25,0,0,1,69.08,30a18,18,0,0,1,5.24-13.22,17.49,17.49,0,0,1,13-5.29c3.85,0,6.79.53,8.83,1.65v3a19.35,19.35,0,0,0-8.56-1.92,15,15,0,0,0-10.81,4.28c-2.94,2.83-4.39,6.69-4.39,11.45,0,4.6,1.34,8.29,4,11.07s6.32,4.12,11.08,4.12a20.43,20.43,0,0,0,10.11-2.83Z"/><path class="cls-1" d="M130.28,47.52h-3V30.19H106.74V47.52h-3.1V12.11h3.1v15.3h20.49V12.11h3Z"/><path class="cls-1" d="M144.35,47.52h-3.1V12.11h3.1Z"/><path class="cls-1" d="M178,14.89H166.39V47.52h-3.15V14.89H151.57V12.11H178Z"/><path class="cls-1" d="M208.23,44.69v2.83h-23.6V12.11h22.15v2.78h-19V27.41h17.66v2.78H187.79v14.5Z"/><path class="cls-1" d="M242.52,45.44c-2.62,1.65-7,2.56-10.43,2.56-5.62,0-10.06-1.65-13.22-5A18.25,18.25,0,0,1,214.11,30a18,18,0,0,1,5.24-13.22,17.49,17.49,0,0,1,13-5.29c3.85,0,6.8.53,8.83,1.65v3a19.35,19.35,0,0,0-8.56-1.92,15,15,0,0,0-10.81,4.28c-2.94,2.83-4.39,6.69-4.39,11.45,0,4.6,1.34,8.29,4,11.07s6.32,4.12,11.08,4.12a20.43,20.43,0,0,0,10.11-2.83Z"/><path class="cls-1" d="M103.1,94.36V58.61h12.63q8.31,0,13.26,4.86c3.32,3.18,5,7.5,5,12.85s-1.6,9.77-4.74,13.07-7.49,5-12.92,5Zm23.78-28.73c-2.46-2.81-6.18-4.22-11.09-4.22h-9.38V91.49h9.66c9.61,0,14.58-5.94,14.58-15.06A15.61,15.61,0,0,0,126.88,65.63Z"/><path class="cls-1" d="M167.17,91.49v2.87H142V58.61h23.67v2.8h-20.3V74.05H164.2v2.81H145.33V91.49Z"/><path class="cls-1" d="M170.88,88.63A19.23,19.23,0,0,0,181.63,92c5.77,0,9.66-2.16,9.66-6.64,0-10.37-19.55-8-19.55-18.36a7.6,7.6,0,0,1,3.31-6.64,12.83,12.83,0,0,1,7.61-2.32,20.15,20.15,0,0,1,9.6,2.21v3.35a16.71,16.71,0,0,0-9.15-2.7c-4.57,0-7.94,1.78-7.94,5.94,0,2.75,3,4.75,6.86,6.26,5.48,2.11,12.69,4.81,12.57,11.72,0,6.64-5,10.05-12.52,10.05A20.88,20.88,0,0,1,170.88,92Z"/><path class="cls-1" d="M205.35,94.36H202V58.61h3.32Z"/><path class="cls-1" d="M219.58,63.31a19.61,19.61,0,0,1,14-5.35c4.29,0,7.6.65,9.95,1.89V63a21.89,21.89,0,0,0-9.89-2.22,16.51,16.51,0,0,0-11.55,4.32C219,68,217.4,71.89,217.4,76.7a15.15,15.15,0,0,0,4.18,11.12Q225.78,92,233.41,92a22.58,22.58,0,0,0,8.4-1.56V76.75h3.26V92.57a29.62,29.62,0,0,1-12.46,2.27c-5.89,0-10.46-1.73-13.78-5.18a18.35,18.35,0,0,1-4.91-13A17.64,17.64,0,0,1,219.58,63.31Z"/><path class="cls-1" d="M256.84,94.36h-3.2V58.12h.86l27.2,29.49h.23v-29h3.2V94.73h-.85L257,65.09h-.17Z"/></g></g></svg>