<svg xmlns="http://www.w3.org/2000/svg" xmlns:xlink="http://www.w3.org/1999/xlink" viewBox="0 0 20.96 13.27"><defs><style>.cls-1{fill:none;}.cls-2{clip-path:url(#clip-path);}</style><clipPath id="clip-path"><rect class="cls-1" width="21" height="13.4"/></clipPath></defs><title>Ресурс 2</title><g id="Шар_2" data-name="Шар 2"><g id="Шар_1-2" data-name="Шар 1"><path d="M8.46,5.93a2.26,2.26,0,0,0,2-2.47C10.44,1.13,8.82,0,6.76,0H0V13H6.76s4.13.13,4.13-3.84c0,0,.18-3.23-2.43-3.23ZM3,2.31H6.76s.92,0,.92,1.35S7.14,5.21,6.53,5.21H3Zm3.61,8.38H3V7.21H6.76S8.13,7.2,8.13,9c0,1.5-1,1.67-1.54,1.69Zm0,0"/><g class="cls-2"><rect x="13.6" y="0.77" width="5.36" height="1.6"/><path d="M16.4,3.31c-5,0-5,5-5,5a4.61,4.61,0,0,0,5,5s4.45.25,4.45-3.46H18.56s.08,1.4-2.08,1.4a2.11,2.11,0,0,1-2.29-2.26h6.73s.74-5.64-4.52-5.64Zm2,3.91H14.16a2.33,2.33,0,0,1,2.29-2,1.93,1.93,0,0,1,2,2Zm0,0"/></g></g></g></svg>