<svg xmlns="http://www.w3.org/2000/svg" viewBox="0 0 14.61 27.03"><defs><style>.cls-1{fill:#fff;}</style></defs><title>facebook (white)</title><g id="Шар_2" data-name="Шар 2"><g id="_06-SINGLE-WHITE" data-name="06-SINGLE-WHITE"><path class="cls-1" d="M14.06,0H10.56C6.62,0,4.07,2.61,4.07,6.65V9.72H.55a.55.55,0,0,0-.55.55v4.44a.55.55,0,0,0,.55.55H4.07V26.48a.55.55,0,0,0,.55.55h4.6a.55.55,0,0,0,.55-.55V15.26h4.12a.55.55,0,0,0,.55-.55V10.27a.56.56,0,0,0-.16-.39.55.55,0,0,0-.39-.16H9.77V7.12c0-1.25.3-1.88,1.92-1.88h2.36a.55.55,0,0,0,.55-.55V.56A.55.55,0,0,0,14.06,0Zm0,0"/></g></g></svg>