<svg xmlns="http://www.w3.org/2000/svg" viewBox="0 0 21.63 27.51"><defs><style>.cls-1{fill:#fff;}</style></defs><title>pinterest (white)</title><g id="Шар_2" data-name="Шар 2"><g id="_03-SINGLE-COLOR" data-name="03-SINGLE-COLOR"><path class="cls-1" d="M18.82,2.82A10.55,10.55,0,0,0,11.44,0,11.6,11.6,0,0,0,2.88,3.3,9.75,9.75,0,0,0,0,10.06c0,3.06,1.28,5.41,3.43,6.29a1.13,1.13,0,0,0,.43.09,1,1,0,0,0,.94-.77c.07-.27.24-.95.31-1.24a1.16,1.16,0,0,0-.31-1.26,4,4,0,0,1-.91-2.73A6.88,6.88,0,0,1,11,3.51c3.67,0,6,2.09,6,5.45a11.33,11.33,0,0,1-1.29,5.53,3.81,3.81,0,0,1-3.15,2.2,2.09,2.09,0,0,1-1.66-.76,1.91,1.91,0,0,1-.33-1.66c.16-.69.39-1.42.6-2.12a13.09,13.09,0,0,0,.77-3.45A2.5,2.5,0,0,0,9.4,6C7.48,6,6,7.91,6,10.4a6.59,6.59,0,0,0,.47,2.48L4.51,21.11c-.16.67-1.1,5.95.46,6.37,1.76.47,3.33-4.67,3.5-5.25S9,20,9.33,18.87a5.32,5.32,0,0,0,3.55,1.37,7.92,7.92,0,0,0,6.36-3.18,12.77,12.77,0,0,0,2.39-7.81,9,9,0,0,0-2.8-6.44Zm0,0"/></g></g></svg>