<svg xmlns="http://www.w3.org/2000/svg" viewBox="0 0 27.15 24.68"><defs><style>.cls-1{fill:#fff;}</style></defs><title>linkedin (white)</title><g id="Шар_2" data-name="Шар 2"><g id="_06-SINGLE-WHITE" data-name="06-SINGLE-WHITE"><g id="LinkedIn"><rect class="cls-1" x="0.68" y="7.91" width="5.29" height="16.77"/><path class="cls-1" d="M20.43,7.75c-3,0-4.93,1.64-5.28,2.79V7.91H9.21c.08,1.4,0,16.77,0,16.77h5.94V15.61a3.82,3.82,0,0,1,.13-1.37,3,3,0,0,1,2.87-2.05c2.06,0,3,1.55,3,3.82v8.68h6V15.36C27.15,10.17,24.2,7.75,20.43,7.75Z"/><path class="cls-1" d="M3.23,0A3,3,0,0,0,0,2.91,2.93,2.93,0,0,0,3.16,5.82h0A3,3,0,0,0,6.42,2.91,2.94,2.94,0,0,0,3.23,0Z"/></g></g></g></svg>