<svg xmlns="http://www.w3.org/2000/svg" viewBox="0 0 26.35 26.35"><defs><style>.cls-1{fill:#fff;}</style></defs><title>instagram (white)</title><g id="Шар_2" data-name="Шар 2"><g id="_03-SINGLE-COLOR" data-name="03-SINGLE-COLOR"><path class="cls-1" d="M19.08,0H7.27A7.28,7.28,0,0,0,0,7.27V19.08a7.28,7.28,0,0,0,7.27,7.27H19.08a7.28,7.28,0,0,0,7.27-7.27V7.27A7.28,7.28,0,0,0,19.08,0ZM24,19.08A4.94,4.94,0,0,1,19.08,24H7.27a4.94,4.94,0,0,1-4.93-4.93V7.27A4.94,4.94,0,0,1,7.27,2.34H19.08A4.94,4.94,0,0,1,24,7.27Zm0,0"/><path class="cls-1" d="M13.18,6.39A6.79,6.79,0,1,0,20,13.18a6.8,6.8,0,0,0-6.79-6.79Zm0,11.24a4.45,4.45,0,1,1,4.45-4.45,4.46,4.46,0,0,1-4.45,4.45Zm0,0"/><path class="cls-1" d="M20.25,4.4a1.71,1.71,0,1,0,1.21.5,1.72,1.72,0,0,0-1.21-.5Zm0,0"/></g></g></svg>