<svg xmlns="http://www.w3.org/2000/svg" viewBox="0 0 12 15.5"><title>Ресурс 4</title><g id="Шар_2" data-name="Шар 2"><g id="Шар_1-2" data-name="Шар 1"><path d="M6.36,0C2.13,0,0,3,0,5.56A3.43,3.43,0,0,0,1.82,9a.31.31,0,0,0,.45-.22L2.45,8a.43.43,0,0,0-.13-.5,2.57,2.57,0,0,1-.59-1.75A4.22,4.22,0,0,1,6.12,1.52c2.39,0,3.7,1.46,3.7,3.41A5.49,5.49,0,0,1,8.21,9.24,2,2,0,0,1,7,9.67,1.38,1.38,0,0,1,5.6,8a19.14,19.14,0,0,0,.79-3.16,1.19,1.19,0,0,0-1.2-1.34c-1,0-1.72,1-1.72,2.3a3.43,3.43,0,0,0,.28,1.41L2.6,12a10,10,0,0,0,0,3.38.12.12,0,0,0,.21.05,9.49,9.49,0,0,0,1.61-2.91c.11-.4.63-2.45.63-2.45A2.55,2.55,0,0,0,7.2,11.2c2.86,0,4.8-2.61,4.8-6.1A5.32,5.32,0,0,0,6.36,0Zm0,0"/></g></g></svg>